<?xml version="1.0" encoding="UTF-8"?>
<svg xmlns="http://www.w3.org/2000/svg" xmlns:xlink="http://www.w3.org/1999/xlink" width="1920" height="1080" viewBox="0 0 1920 1080">
<defs>
<g>
<g id="glyph-0-0">
<path d="M 1.089844 -8.640625 L 2.546875 -8.640625 L 2.546875 -5.25 L 6.054688 -8.640625 L 7.992188 -8.640625 L 4.125 -5.054688 L 8.324219 0 L 6.453125 0 L 3.085938 -4.070312 L 2.546875 -3.574219 L 2.546875 0 L 1.089844 0 Z "/>
</g>
<g id="glyph-0-1">
</g>
<g id="glyph-0-2">
<path d="M 8.804688 -7.015625 L 0.925781 -7.015625 L 0.925781 -8.382812 L 8.804688 -8.382812 L 8.804688 -7.015625 M 8.804688 -3.394531 L 0.925781 -3.394531 L 0.925781 -4.761719 L 8.804688 -4.761719 Z "/>
</g>
<g id="glyph-0-3">
<path d="M 8.390625 -1.40625 L 8.390625 0 L 0.503906 0 C 0.492188 -0.351562 0.550781 -0.691406 0.675781 -1.015625 C 0.875 -1.554688 1.199219 -2.082031 1.640625 -2.605469 C 2.082031 -3.125 2.722656 -3.726562 3.554688 -4.410156 C 4.851562 -5.472656 5.730469 -6.316406 6.183594 -6.9375 C 6.640625 -7.558594 6.867188 -8.144531 6.867188 -8.699219 C 6.867188 -9.28125 6.660156 -9.769531 6.246094 -10.167969 C 5.832031 -10.566406 5.289062 -10.765625 4.621094 -10.765625 C 3.917969 -10.765625 3.351562 -10.554688 2.929688 -10.132812 C 2.507812 -9.707031 2.292969 -9.121094 2.285156 -8.375 L 0.78125 -8.527344 C 0.882812 -9.652344 1.273438 -10.507812 1.945312 -11.097656 C 2.617188 -11.683594 3.519531 -11.980469 4.65625 -11.980469 C 5.800781 -11.980469 6.707031 -11.660156 7.371094 -11.027344 C 8.039062 -10.390625 8.375 -9.605469 8.375 -8.667969 C 8.375 -8.191406 8.277344 -7.71875 8.082031 -7.257812 C 7.886719 -6.796875 7.5625 -6.3125 7.109375 -5.800781 C 6.65625 -5.292969 5.902344 -4.59375 4.851562 -3.703125 C 3.972656 -2.964844 3.40625 -2.464844 3.15625 -2.203125 C 2.90625 -1.9375 2.703125 -1.671875 2.539062 -1.40625 Z "/>
</g>
<g id="glyph-0-4">
<path d="M 0.691406 -5.882812 C 0.691406 -7.292969 0.835938 -8.429688 1.128906 -9.289062 C 1.417969 -10.148438 1.847656 -10.8125 2.421875 -11.277344 C 2.992188 -11.746094 3.714844 -11.980469 4.582031 -11.980469 C 5.222656 -11.980469 5.785156 -11.851562 6.265625 -11.59375 C 6.75 -11.335938 7.148438 -10.964844 7.460938 -10.476562 C 7.777344 -9.992188 8.023438 -9.402344 8.203125 -8.703125 C 8.382812 -8.007812 8.472656 -7.066406 8.472656 -5.882812 C 8.472656 -4.484375 8.328125 -3.355469 8.039062 -2.496094 C 7.753906 -1.632812 7.324219 -0.96875 6.75 -0.5 C 6.179688 -0.03125 5.457031 0.203125 4.582031 0.203125 C 3.429688 0.203125 2.527344 -0.207031 1.871094 -1.035156 C 1.085938 -2.027344 0.691406 -3.644531 0.691406 -5.882812 M 2.195312 -5.882812 C 2.195312 -3.925781 2.425781 -2.621094 2.886719 -1.972656 C 3.34375 -1.324219 3.910156 -1 4.582031 -1 C 5.253906 -1 5.820312 -1.328125 6.277344 -1.976562 C 6.738281 -2.628906 6.964844 -3.929688 6.964844 -5.882812 C 6.964844 -7.847656 6.738281 -9.152344 6.277344 -9.796875 C 5.820312 -10.445312 5.25 -10.765625 4.566406 -10.765625 C 3.894531 -10.765625 3.355469 -10.480469 2.953125 -9.910156 C 2.449219 -9.183594 2.195312 -7.84375 2.195312 -5.882812 Z "/>
</g>
<g id="glyph-0-5">
<path d="M 1.511719 0 L 1.511719 -1.667969 L 3.183594 -1.667969 L 3.183594 0 Z "/>
</g>
</g>
</defs>
<g fill="rgb(100%, 24.705882%, 0%)" fill-opacity="1">
<use xlink:href="#glyph-0-0" x="30" y="35.086914"/>
<use xlink:href="#glyph-0-1" x="38" y="35.086914"/>
<use xlink:href="#glyph-0-2" x="43" y="35.086914"/>
<use xlink:href="#glyph-0-1" x="53" y="35.086914"/>
<use xlink:href="#glyph-0-3" x="58" y="35.086914"/>
<use xlink:href="#glyph-0-4" x="67" y="35.086914"/>
<use xlink:href="#glyph-0-5" x="76" y="35.086914"/>
<use xlink:href="#glyph-0-4" x="81" y="35.086914"/>
<use xlink:href="#glyph-0-4" x="90" y="35.086914"/>
</g>
</svg>
