<?xml version="1.0" encoding="UTF-8"?>
<svg xmlns="http://www.w3.org/2000/svg" xmlns:xlink="http://www.w3.org/1999/xlink" width="1920" height="1080" viewBox="0 0 1920 1080">
<defs>
<g>
<g id="glyph-0-0">
<path d="M 5.320312 -3.53125 C 5.484375 -3.351562 5.605469 -3.152344 5.683594 -2.9375 C 5.761719 -2.722656 5.800781 -2.472656 5.800781 -2.1875 C 5.800781 -1.507812 5.546875 -0.945312 5.046875 -0.503906 C 4.542969 -0.0625 3.917969 0.15625 3.171875 0.15625 C 2.832031 0.15625 2.488281 0.105469 2.144531 -0.00390625 C 1.800781 -0.109375 1.503906 -0.238281 1.253906 -0.390625 L 1.019531 0.00390625 L 0.585938 0.00390625 L 0.511719 -2.632812 L 0.949219 -2.632812 C 1.039062 -2.304688 1.144531 -2.011719 1.265625 -1.75 C 1.386719 -1.488281 1.546875 -1.242188 1.746094 -1.015625 C 1.933594 -0.800781 2.15625 -0.632812 2.40625 -0.503906 C 2.65625 -0.378906 2.949219 -0.316406 3.28125 -0.316406 C 3.53125 -0.316406 3.75 -0.347656 3.9375 -0.414062 C 4.121094 -0.476562 4.273438 -0.570312 4.390625 -0.691406 C 4.503906 -0.808594 4.589844 -0.949219 4.648438 -1.109375 C 4.703125 -1.273438 4.730469 -1.457031 4.730469 -1.667969 C 4.730469 -1.976562 4.644531 -2.261719 4.46875 -2.527344 C 4.296875 -2.792969 4.039062 -2.996094 3.695312 -3.132812 C 3.460938 -3.226562 3.191406 -3.332031 2.886719 -3.445312 C 2.582031 -3.558594 2.320312 -3.664062 2.097656 -3.765625 C 1.664062 -3.960938 1.328125 -4.21875 1.085938 -4.535156 C 0.847656 -4.851562 0.726562 -5.261719 0.726562 -5.773438 C 0.726562 -6.066406 0.785156 -6.339844 0.90625 -6.59375 C 1.023438 -6.84375 1.195312 -7.070312 1.414062 -7.269531 C 1.625 -7.457031 1.875 -7.605469 2.160156 -7.710938 C 2.445312 -7.820312 2.742188 -7.871094 3.054688 -7.871094 C 3.410156 -7.871094 3.726562 -7.816406 4.007812 -7.710938 C 4.285156 -7.601562 4.542969 -7.472656 4.773438 -7.328125 L 4.996094 -7.699219 L 5.429688 -7.699219 L 5.472656 -5.144531 L 5.035156 -5.144531 C 4.953125 -5.4375 4.867188 -5.714844 4.765625 -5.984375 C 4.667969 -6.25 4.539062 -6.492188 4.378906 -6.710938 C 4.222656 -6.921875 4.03125 -7.089844 3.808594 -7.210938 C 3.585938 -7.335938 3.308594 -7.398438 2.984375 -7.398438 C 2.640625 -7.398438 2.347656 -7.289062 2.105469 -7.070312 C 1.863281 -6.847656 1.742188 -6.578125 1.742188 -6.261719 C 1.742188 -5.929688 1.820312 -5.652344 1.976562 -5.433594 C 2.128906 -5.214844 2.355469 -5.035156 2.652344 -4.894531 C 2.917969 -4.765625 3.175781 -4.65625 3.429688 -4.566406 C 3.6875 -4.472656 3.933594 -4.375 4.171875 -4.269531 C 4.390625 -4.175781 4.597656 -4.070312 4.796875 -3.949219 C 5 -3.832031 5.171875 -3.691406 5.320312 -3.53125 Z "/>
</g>
<g id="glyph-0-1">
<path d="M 5.144531 -1.257812 C 4.917969 -0.832031 4.617188 -0.492188 4.242188 -0.238281 C 3.867188 0.015625 3.433594 0.140625 2.945312 0.140625 C 2.515625 0.140625 2.136719 0.0664062 1.816406 -0.0859375 C 1.492188 -0.238281 1.222656 -0.445312 1.015625 -0.707031 C 0.804688 -0.964844 0.648438 -1.269531 0.546875 -1.617188 C 0.441406 -1.964844 0.390625 -2.332031 0.390625 -2.71875 C 0.390625 -3.066406 0.445312 -3.40625 0.554688 -3.742188 C 0.667969 -4.074219 0.828125 -4.375 1.042969 -4.644531 C 1.246094 -4.902344 1.503906 -5.109375 1.808594 -5.265625 C 2.113281 -5.421875 2.457031 -5.5 2.835938 -5.5 C 3.226562 -5.5 3.5625 -5.441406 3.839844 -5.316406 C 4.121094 -5.195312 4.34375 -5.027344 4.519531 -4.8125 C 4.683594 -4.609375 4.808594 -4.371094 4.890625 -4.097656 C 4.972656 -3.820312 5.011719 -3.523438 5.011719 -3.199219 L 5.011719 -2.84375 L 1.46875 -2.84375 C 1.46875 -2.492188 1.503906 -2.171875 1.570312 -1.886719 C 1.636719 -1.597656 1.742188 -1.347656 1.886719 -1.128906 C 2.027344 -0.917969 2.214844 -0.753906 2.441406 -0.632812 C 2.667969 -0.511719 2.941406 -0.449219 3.253906 -0.449219 C 3.578125 -0.449219 3.855469 -0.527344 4.085938 -0.675781 C 4.320312 -0.828125 4.546875 -1.097656 4.761719 -1.492188 L 5.144531 -1.257812 M 3.945312 -3.296875 C 3.945312 -3.5 3.925781 -3.714844 3.890625 -3.949219 C 3.859375 -4.179688 3.804688 -4.371094 3.726562 -4.527344 C 3.644531 -4.691406 3.53125 -4.828125 3.386719 -4.933594 C 3.242188 -5.035156 3.054688 -5.089844 2.828125 -5.089844 C 2.445312 -5.089844 2.132812 -4.929688 1.878906 -4.617188 C 1.628906 -4.300781 1.492188 -3.859375 1.46875 -3.296875 Z "/>
</g>
<g id="glyph-0-2">
<path d="M 9.542969 0 L 6.9375 0 L 6.9375 -0.359375 C 7.023438 -0.367188 7.105469 -0.371094 7.191406 -0.378906 C 7.277344 -0.386719 7.351562 -0.402344 7.417969 -0.421875 C 7.515625 -0.457031 7.59375 -0.511719 7.640625 -0.59375 C 7.691406 -0.675781 7.714844 -0.78125 7.714844 -0.910156 L 7.714844 -3.671875 C 7.714844 -4.050781 7.628906 -4.339844 7.457031 -4.542969 C 7.285156 -4.746094 7.070312 -4.851562 6.8125 -4.851562 C 6.636719 -4.851562 6.46875 -4.824219 6.316406 -4.769531 C 6.160156 -4.714844 6.015625 -4.636719 5.886719 -4.539062 C 5.78125 -4.460938 5.695312 -4.375 5.625 -4.28125 C 5.550781 -4.191406 5.5 -4.113281 5.464844 -4.050781 L 5.464844 -0.964844 C 5.464844 -0.839844 5.484375 -0.734375 5.527344 -0.652344 C 5.570312 -0.574219 5.644531 -0.511719 5.75 -0.464844 C 5.832031 -0.433594 5.910156 -0.410156 5.976562 -0.394531 C 6.042969 -0.378906 6.128906 -0.367188 6.238281 -0.359375 L 6.238281 0 L 3.6875 0 L 3.6875 -0.359375 C 3.773438 -0.367188 3.851562 -0.371094 3.929688 -0.378906 C 4.007812 -0.386719 4.078125 -0.402344 4.144531 -0.421875 C 4.246094 -0.457031 4.320312 -0.511719 4.371094 -0.59375 C 4.417969 -0.675781 4.441406 -0.78125 4.441406 -0.910156 L 4.441406 -3.671875 C 4.441406 -4.050781 4.355469 -4.339844 4.183594 -4.542969 C 4.011719 -4.746094 3.796875 -4.851562 3.539062 -4.851562 C 3.363281 -4.851562 3.195312 -4.820312 3.039062 -4.765625 C 2.882812 -4.710938 2.742188 -4.632812 2.609375 -4.535156 C 2.503906 -4.457031 2.417969 -4.367188 2.34375 -4.265625 C 2.273438 -4.167969 2.21875 -4.09375 2.179688 -4.042969 L 2.179688 -0.976562 C 2.179688 -0.855469 2.207031 -0.75 2.257812 -0.667969 C 2.308594 -0.585938 2.382812 -0.519531 2.484375 -0.476562 C 2.5625 -0.441406 2.636719 -0.414062 2.71875 -0.394531 C 2.796875 -0.378906 2.886719 -0.367188 2.984375 -0.359375 L 2.984375 0 L 0.386719 0 L 0.386719 -0.359375 C 0.46875 -0.367188 0.554688 -0.371094 0.644531 -0.378906 C 0.730469 -0.386719 0.808594 -0.402344 0.875 -0.421875 C 0.976562 -0.457031 1.050781 -0.511719 1.097656 -0.59375 C 1.148438 -0.675781 1.171875 -0.78125 1.171875 -0.910156 L 1.171875 -4.234375 C 1.171875 -4.347656 1.144531 -4.453125 1.09375 -4.542969 C 1.039062 -4.636719 0.96875 -4.714844 0.875 -4.78125 C 0.804688 -4.824219 0.71875 -4.859375 0.617188 -4.886719 C 0.515625 -4.914062 0.414062 -4.929688 0.304688 -4.9375 L 0.304688 -5.296875 L 2.09375 -5.414062 L 2.171875 -5.339844 L 2.171875 -4.574219 L 2.207031 -4.574219 C 2.296875 -4.664062 2.410156 -4.769531 2.539062 -4.894531 C 2.667969 -5.015625 2.789062 -5.117188 2.902344 -5.191406 C 3.027344 -5.277344 3.1875 -5.351562 3.378906 -5.410156 C 3.566406 -5.464844 3.773438 -5.496094 3.992188 -5.496094 C 4.339844 -5.496094 4.636719 -5.402344 4.886719 -5.214844 C 5.136719 -5.03125 5.316406 -4.804688 5.425781 -4.539062 C 5.554688 -4.667969 5.667969 -4.777344 5.769531 -4.875 C 5.867188 -4.96875 6 -5.074219 6.160156 -5.179688 C 6.300781 -5.273438 6.460938 -5.351562 6.648438 -5.410156 C 6.832031 -5.464844 7.039062 -5.496094 7.265625 -5.496094 C 7.71875 -5.496094 8.074219 -5.347656 8.339844 -5.050781 C 8.601562 -4.753906 8.734375 -4.296875 8.734375 -3.683594 L 8.734375 -0.964844 C 8.734375 -0.839844 8.757812 -0.734375 8.800781 -0.652344 C 8.84375 -0.574219 8.917969 -0.511719 9.023438 -0.464844 C 9.105469 -0.433594 9.1875 -0.410156 9.269531 -0.394531 C 9.351562 -0.378906 9.441406 -0.367188 9.542969 -0.359375 Z "/>
</g>
<g id="glyph-0-3">
<path d="M 5.457031 -0.0976562 C 5.289062 -0.0351562 5.136719 0.0117188 5.011719 0.0507812 C 4.882812 0.0898438 4.734375 0.109375 4.574219 0.109375 C 4.292969 0.109375 4.066406 0.0429688 3.898438 -0.0898438 C 3.730469 -0.222656 3.621094 -0.414062 3.574219 -0.667969 L 3.542969 -0.667969 C 3.308594 -0.40625 3.054688 -0.207031 2.785156 -0.0703125 C 2.515625 0.0664062 2.191406 0.136719 1.8125 0.136719 C 1.410156 0.136719 1.082031 0.0117188 0.820312 -0.234375 C 0.5625 -0.480469 0.433594 -0.800781 0.433594 -1.199219 C 0.433594 -1.40625 0.464844 -1.589844 0.519531 -1.753906 C 0.578125 -1.914062 0.664062 -2.0625 0.78125 -2.191406 C 0.871094 -2.300781 0.992188 -2.398438 1.140625 -2.480469 C 1.289062 -2.566406 1.425781 -2.636719 1.558594 -2.683594 C 1.71875 -2.746094 2.050781 -2.859375 2.546875 -3.027344 C 3.042969 -3.195312 3.378906 -3.324219 3.554688 -3.417969 L 3.554688 -3.953125 C 3.554688 -4 3.542969 -4.09375 3.523438 -4.226562 C 3.503906 -4.359375 3.460938 -4.488281 3.394531 -4.605469 C 3.324219 -4.738281 3.222656 -4.855469 3.089844 -4.957031 C 2.957031 -5.054688 2.769531 -5.105469 2.527344 -5.105469 C 2.363281 -5.105469 2.207031 -5.078125 2.0625 -5.019531 C 1.921875 -4.964844 1.820312 -4.90625 1.761719 -4.84375 C 1.761719 -4.773438 1.78125 -4.664062 1.816406 -4.523438 C 1.847656 -4.382812 1.867188 -4.253906 1.867188 -4.132812 C 1.867188 -4.007812 1.808594 -3.890625 1.695312 -3.785156 C 1.582031 -3.683594 1.421875 -3.628906 1.21875 -3.628906 C 1.039062 -3.628906 0.90625 -3.695312 0.820312 -3.820312 C 0.738281 -3.949219 0.695312 -4.09375 0.695312 -4.253906 C 0.695312 -4.417969 0.753906 -4.578125 0.871094 -4.730469 C 0.988281 -4.882812 1.140625 -5.019531 1.328125 -5.136719 C 1.492188 -5.238281 1.6875 -5.324219 1.921875 -5.394531 C 2.152344 -5.464844 2.378906 -5.5 2.597656 -5.5 C 2.902344 -5.5 3.167969 -5.480469 3.394531 -5.4375 C 3.621094 -5.398438 3.824219 -5.308594 4.007812 -5.171875 C 4.195312 -5.035156 4.332031 -4.855469 4.429688 -4.625 C 4.527344 -4.394531 4.574219 -4.097656 4.574219 -3.738281 C 4.574219 -3.222656 4.566406 -2.761719 4.558594 -2.363281 C 4.546875 -1.964844 4.539062 -1.527344 4.539062 -1.050781 C 4.539062 -0.910156 4.566406 -0.800781 4.613281 -0.714844 C 4.664062 -0.632812 4.738281 -0.5625 4.839844 -0.503906 C 4.894531 -0.472656 4.980469 -0.453125 5.097656 -0.449219 C 5.214844 -0.445312 5.335938 -0.445312 5.457031 -0.445312 L 5.457031 -0.0976562 M 3.5625 -2.960938 C 3.257812 -2.871094 2.988281 -2.78125 2.757812 -2.695312 C 2.523438 -2.609375 2.308594 -2.5 2.109375 -2.371094 C 1.929688 -2.246094 1.785156 -2.101562 1.683594 -1.933594 C 1.578125 -1.761719 1.523438 -1.5625 1.523438 -1.332031 C 1.523438 -1.03125 1.601562 -0.808594 1.761719 -0.667969 C 1.917969 -0.527344 2.117188 -0.457031 2.359375 -0.457031 C 2.617188 -0.457031 2.84375 -0.519531 3.039062 -0.644531 C 3.234375 -0.769531 3.398438 -0.917969 3.53125 -1.085938 Z "/>
</g>
<g id="glyph-0-4">
<path d="M 6.296875 0 L 3.683594 0 L 3.683594 -0.359375 C 3.765625 -0.367188 3.859375 -0.371094 3.957031 -0.378906 C 4.058594 -0.386719 4.140625 -0.402344 4.203125 -0.421875 C 4.304688 -0.457031 4.378906 -0.511719 4.429688 -0.59375 C 4.476562 -0.675781 4.503906 -0.78125 4.503906 -0.910156 L 4.503906 -3.660156 C 4.503906 -4.042969 4.414062 -4.335938 4.234375 -4.539062 C 4.054688 -4.746094 3.835938 -4.851562 3.578125 -4.851562 C 3.386719 -4.851562 3.210938 -4.820312 3.050781 -4.761719 C 2.890625 -4.699219 2.75 -4.628906 2.625 -4.539062 C 2.507812 -4.457031 2.410156 -4.367188 2.339844 -4.273438 C 2.269531 -4.175781 2.21875 -4.097656 2.1875 -4.042969 L 2.1875 -0.964844 C 2.1875 -0.84375 2.210938 -0.742188 2.261719 -0.660156 C 2.3125 -0.582031 2.390625 -0.519531 2.488281 -0.476562 C 2.566406 -0.441406 2.648438 -0.414062 2.738281 -0.394531 C 2.824219 -0.378906 2.917969 -0.367188 3.011719 -0.359375 L 3.011719 0 L 0.390625 0 L 0.390625 -0.359375 C 0.472656 -0.367188 0.558594 -0.371094 0.648438 -0.378906 C 0.738281 -0.386719 0.8125 -0.402344 0.878906 -0.421875 C 0.980469 -0.457031 1.054688 -0.511719 1.105469 -0.59375 C 1.152344 -0.675781 1.175781 -0.78125 1.175781 -0.910156 L 1.175781 -4.210938 C 1.175781 -4.332031 1.152344 -4.445312 1.097656 -4.550781 C 1.046875 -4.652344 0.972656 -4.738281 0.878906 -4.800781 C 0.808594 -4.84375 0.730469 -4.875 0.632812 -4.894531 C 0.539062 -4.917969 0.4375 -4.929688 0.332031 -4.9375 L 0.332031 -5.296875 L 2.109375 -5.414062 L 2.1875 -5.339844 L 2.1875 -4.585938 L 2.214844 -4.585938 C 2.300781 -4.671875 2.410156 -4.773438 2.539062 -4.894531 C 2.667969 -5.015625 2.792969 -5.117188 2.90625 -5.191406 C 3.042969 -5.277344 3.199219 -5.351562 3.386719 -5.410156 C 3.570312 -5.464844 3.777344 -5.496094 4.007812 -5.496094 C 4.523438 -5.496094 4.902344 -5.335938 5.152344 -5.015625 C 5.398438 -4.695312 5.523438 -4.269531 5.523438 -3.738281 L 5.523438 -0.953125 C 5.523438 -0.828125 5.542969 -0.726562 5.585938 -0.648438 C 5.632812 -0.570312 5.707031 -0.511719 5.808594 -0.464844 C 5.898438 -0.429688 5.972656 -0.40625 6.035156 -0.390625 C 6.097656 -0.375 6.1875 -0.367188 6.296875 -0.359375 Z "/>
</g>
<g id="glyph-0-5">
<path d="M 3.695312 -0.234375 C 3.460938 -0.136719 3.238281 -0.0546875 3.027344 0.0117188 C 2.816406 0.0820312 2.5625 0.113281 2.257812 0.113281 C 1.808594 0.113281 1.492188 0 1.308594 -0.226562 C 1.128906 -0.453125 1.035156 -0.769531 1.035156 -1.183594 L 1.035156 -4.808594 L 0.0703125 -4.808594 L 0.0703125 -5.328125 L 1.058594 -5.328125 L 1.058594 -6.992188 L 2.046875 -6.992188 L 2.046875 -5.328125 L 3.582031 -5.328125 L 3.582031 -4.808594 L 2.054688 -4.808594 L 2.054688 -1.816406 C 2.054688 -1.59375 2.0625 -1.40625 2.082031 -1.257812 C 2.097656 -1.105469 2.136719 -0.976562 2.195312 -0.863281 C 2.253906 -0.757812 2.34375 -0.679688 2.457031 -0.625 C 2.574219 -0.570312 2.730469 -0.542969 2.925781 -0.542969 C 3.015625 -0.542969 3.148438 -0.550781 3.324219 -0.566406 C 3.5 -0.582031 3.621094 -0.605469 3.695312 -0.628906 Z "/>
</g>
<g id="glyph-0-6">
<path d="M 2.984375 0 L 0.402344 0 L 0.402344 -0.359375 C 0.484375 -0.367188 0.570312 -0.371094 0.660156 -0.378906 C 0.746094 -0.386719 0.824219 -0.402344 0.890625 -0.421875 C 0.992188 -0.457031 1.066406 -0.511719 1.113281 -0.59375 C 1.164062 -0.675781 1.1875 -0.78125 1.1875 -0.910156 L 1.1875 -4.210938 C 1.1875 -4.328125 1.160156 -4.433594 1.109375 -4.527344 C 1.058594 -4.625 0.984375 -4.703125 0.890625 -4.769531 C 0.820312 -4.8125 0.722656 -4.847656 0.589844 -4.878906 C 0.460938 -4.910156 0.339844 -4.929688 0.234375 -4.9375 L 0.234375 -5.296875 L 2.121094 -5.414062 L 2.195312 -5.339844 L 2.195312 -0.976562 C 2.195312 -0.851562 2.222656 -0.746094 2.269531 -0.660156 C 2.320312 -0.578125 2.394531 -0.515625 2.5 -0.476562 C 2.578125 -0.445312 2.65625 -0.417969 2.730469 -0.398438 C 2.804688 -0.378906 2.890625 -0.367188 2.984375 -0.359375 L 2.984375 0 M 2.304688 -7.523438 C 2.304688 -7.320312 2.238281 -7.136719 2.101562 -6.984375 C 1.964844 -6.832031 1.800781 -6.753906 1.601562 -6.753906 C 1.414062 -6.753906 1.257812 -6.828125 1.121094 -6.972656 C 0.984375 -7.121094 0.917969 -7.289062 0.917969 -7.476562 C 0.917969 -7.675781 0.984375 -7.847656 1.121094 -7.996094 C 1.257812 -8.144531 1.414062 -8.21875 1.601562 -8.21875 C 1.804688 -8.21875 1.976562 -8.148438 2.109375 -8.011719 C 2.238281 -7.871094 2.304688 -7.710938 2.304688 -7.523438 Z "/>
</g>
<g id="glyph-0-7">
<path d="M 2.863281 0.140625 C 2.089844 0.140625 1.484375 -0.117188 1.046875 -0.628906 C 0.609375 -1.144531 0.390625 -1.832031 0.390625 -2.695312 C 0.390625 -3.074219 0.449219 -3.425781 0.566406 -3.75 C 0.683594 -4.078125 0.855469 -4.375 1.078125 -4.644531 C 1.292969 -4.902344 1.5625 -5.109375 1.882812 -5.265625 C 2.203125 -5.421875 2.554688 -5.5 2.933594 -5.5 C 3.460938 -5.5 3.886719 -5.375 4.214844 -5.125 C 4.542969 -4.871094 4.710938 -4.53125 4.710938 -4.097656 C 4.710938 -3.914062 4.664062 -3.753906 4.578125 -3.617188 C 4.492188 -3.476562 4.347656 -3.40625 4.148438 -3.40625 C 3.9375 -3.40625 3.769531 -3.460938 3.652344 -3.570312 C 3.535156 -3.675781 3.476562 -3.796875 3.476562 -3.929688 C 3.476562 -4.09375 3.5 -4.261719 3.542969 -4.433594 C 3.585938 -4.601562 3.613281 -4.726562 3.617188 -4.808594 C 3.554688 -4.917969 3.457031 -4.992188 3.328125 -5.03125 C 3.199219 -5.070312 3.0625 -5.089844 2.914062 -5.089844 C 2.742188 -5.089844 2.578125 -5.050781 2.421875 -4.976562 C 2.261719 -4.902344 2.109375 -4.765625 1.960938 -4.566406 C 1.828125 -4.386719 1.722656 -4.144531 1.636719 -3.835938 C 1.554688 -3.527344 1.511719 -3.160156 1.511719 -2.734375 C 1.511719 -2.0625 1.664062 -1.511719 1.960938 -1.085938 C 2.257812 -0.664062 2.648438 -0.449219 3.132812 -0.449219 C 3.484375 -0.449219 3.777344 -0.535156 4.011719 -0.707031 C 4.25 -0.878906 4.46875 -1.132812 4.671875 -1.476562 L 5.019531 -1.246094 C 4.78125 -0.820312 4.464844 -0.484375 4.074219 -0.234375 C 3.683594 0.015625 3.28125 0.140625 2.863281 0.140625 Z "/>
</g>
<g id="glyph-0-8">
</g>
<g id="glyph-0-9">
<path d="M 8.429688 -7.3125 C 8.328125 -7.308594 8.175781 -7.28125 7.964844 -7.226562 C 7.753906 -7.171875 7.605469 -7.117188 7.515625 -7.058594 C 7.382812 -6.96875 7.296875 -6.792969 7.25 -6.539062 C 7.207031 -6.28125 7.183594 -5.953125 7.183594 -5.5625 L 7.183594 0.0742188 L 6.710938 0.0742188 L 2.046875 -6.222656 L 2.046875 -2.25 C 2.046875 -1.804688 2.074219 -1.464844 2.128906 -1.226562 C 2.183594 -0.988281 2.269531 -0.816406 2.386719 -0.714844 C 2.46875 -0.636719 2.640625 -0.5625 2.902344 -0.492188 C 3.164062 -0.425781 3.335938 -0.390625 3.417969 -0.386719 L 3.417969 0 L 0.261719 0 L 0.261719 -0.386719 C 0.359375 -0.390625 0.523438 -0.425781 0.753906 -0.492188 C 0.984375 -0.554688 1.128906 -0.609375 1.1875 -0.660156 C 1.316406 -0.761719 1.402344 -0.917969 1.449219 -1.125 C 1.496094 -1.332031 1.519531 -1.6875 1.519531 -2.191406 L 1.519531 -5.984375 C 1.519531 -6.148438 1.488281 -6.316406 1.433594 -6.484375 C 1.375 -6.648438 1.296875 -6.777344 1.199219 -6.867188 C 1.070312 -6.988281 0.890625 -7.089844 0.671875 -7.175781 C 0.449219 -7.257812 0.269531 -7.304688 0.128906 -7.3125 L 0.128906 -7.699219 L 2.328125 -7.699219 L 6.65625 -1.828125 L 6.65625 -5.492188 C 6.65625 -5.9375 6.628906 -6.285156 6.570312 -6.523438 C 6.511719 -6.765625 6.429688 -6.925781 6.320312 -7.003906 C 6.21875 -7.074219 6.054688 -7.140625 5.824219 -7.203125 C 5.59375 -7.269531 5.417969 -7.304688 5.300781 -7.3125 L 5.300781 -7.699219 L 8.429688 -7.699219 Z "/>
</g>
<g id="glyph-0-10">
<path d="M 6.125 -0.0976562 L 4.378906 0.0234375 L 4.296875 -0.0546875 L 4.296875 -0.730469 L 4.265625 -0.730469 C 4.175781 -0.640625 4.078125 -0.546875 3.972656 -0.441406 C 3.863281 -0.339844 3.738281 -0.246094 3.597656 -0.164062 C 3.433594 -0.0664062 3.277344 0.0078125 3.125 0.0585938 C 2.976562 0.109375 2.761719 0.136719 2.480469 0.136719 C 2.007812 0.136719 1.648438 -0.0195312 1.402344 -0.328125 C 1.15625 -0.636719 1.03125 -1.085938 1.03125 -1.675781 L 1.03125 -4.230469 C 1.03125 -4.363281 1.007812 -4.472656 0.957031 -4.558594 C 0.90625 -4.648438 0.835938 -4.726562 0.742188 -4.789062 C 0.675781 -4.832031 0.59375 -4.867188 0.496094 -4.886719 C 0.398438 -4.90625 0.292969 -4.917969 0.183594 -4.925781 L 0.183594 -5.285156 L 1.96875 -5.414062 L 2.050781 -5.339844 L 2.050781 -1.621094 C 2.050781 -1.234375 2.136719 -0.945312 2.3125 -0.75 C 2.484375 -0.554688 2.691406 -0.457031 2.933594 -0.457031 C 3.132812 -0.457031 3.3125 -0.488281 3.464844 -0.546875 C 3.621094 -0.609375 3.753906 -0.679688 3.855469 -0.765625 C 3.953125 -0.839844 4.039062 -0.921875 4.113281 -1.003906 C 4.1875 -1.089844 4.246094 -1.167969 4.285156 -1.242188 L 4.285156 -4.269531 C 4.285156 -4.390625 4.261719 -4.496094 4.210938 -4.585938 C 4.160156 -4.679688 4.089844 -4.757812 4 -4.824219 C 3.933594 -4.867188 3.835938 -4.894531 3.707031 -4.902344 C 3.578125 -4.910156 3.4375 -4.917969 3.277344 -4.925781 L 3.277344 -5.285156 L 5.222656 -5.414062 L 5.304688 -5.339844 L 5.304688 -1.09375 C 5.304688 -0.972656 5.332031 -0.867188 5.382812 -0.78125 C 5.433594 -0.695312 5.503906 -0.621094 5.59375 -0.558594 C 5.660156 -0.519531 5.734375 -0.492188 5.828125 -0.480469 C 5.917969 -0.46875 6.015625 -0.460938 6.125 -0.457031 Z "/>
</g>
<g id="glyph-0-11">
<path d="M 2.898438 0 L 0.289062 0 L 0.289062 -0.359375 C 0.371094 -0.367188 0.460938 -0.375 0.554688 -0.382812 C 0.648438 -0.390625 0.726562 -0.40625 0.785156 -0.421875 C 0.886719 -0.457031 0.964844 -0.511719 1.015625 -0.59375 C 1.066406 -0.675781 1.089844 -0.78125 1.089844 -0.910156 L 1.089844 -7.113281 C 1.089844 -7.242188 1.0625 -7.363281 1.007812 -7.476562 C 0.949219 -7.59375 0.878906 -7.683594 0.785156 -7.746094 C 0.722656 -7.789062 0.601562 -7.832031 0.429688 -7.867188 C 0.253906 -7.902344 0.117188 -7.925781 0.0117188 -7.929688 L 0.0117188 -8.277344 L 2.023438 -8.398438 L 2.097656 -8.316406 L 2.097656 -0.976562 C 2.097656 -0.851562 2.121094 -0.746094 2.171875 -0.664062 C 2.21875 -0.582031 2.292969 -0.519531 2.398438 -0.476562 C 2.476562 -0.441406 2.554688 -0.414062 2.632812 -0.394531 C 2.710938 -0.378906 2.800781 -0.367188 2.898438 -0.359375 Z "/>
</g>
<g id="glyph-0-12">
<path d="M 4.371094 -7.746094 C 4.371094 -7.585938 4.328125 -7.445312 4.242188 -7.335938 C 4.15625 -7.222656 4.023438 -7.167969 3.847656 -7.167969 C 3.734375 -7.167969 3.636719 -7.191406 3.550781 -7.238281 C 3.464844 -7.285156 3.386719 -7.347656 3.316406 -7.425781 C 3.242188 -7.507812 3.175781 -7.597656 3.113281 -7.699219 C 3.050781 -7.800781 3 -7.882812 2.957031 -7.941406 C 2.714844 -7.929688 2.527344 -7.761719 2.394531 -7.4375 C 2.261719 -7.109375 2.195312 -6.589844 2.195312 -5.875 L 2.195312 -5.328125 L 3.574219 -5.328125 L 3.574219 -4.808594 L 2.195312 -4.808594 L 2.195312 -0.964844 C 2.195312 -0.839844 2.222656 -0.734375 2.269531 -0.65625 C 2.320312 -0.578125 2.394531 -0.515625 2.5 -0.476562 C 2.585938 -0.445312 2.703125 -0.417969 2.847656 -0.398438 C 2.992188 -0.378906 3.117188 -0.367188 3.222656 -0.359375 L 3.222656 0 L 0.402344 0 L 0.402344 -0.359375 C 0.484375 -0.367188 0.570312 -0.371094 0.660156 -0.378906 C 0.746094 -0.386719 0.824219 -0.402344 0.890625 -0.421875 C 0.992188 -0.457031 1.066406 -0.511719 1.113281 -0.59375 C 1.164062 -0.675781 1.1875 -0.78125 1.1875 -0.910156 L 1.1875 -4.808594 L 0.128906 -4.808594 L 0.128906 -5.328125 L 1.1875 -5.328125 L 1.1875 -5.667969 C 1.1875 -6.480469 1.398438 -7.140625 1.820312 -7.644531 C 2.242188 -8.144531 2.769531 -8.398438 3.402344 -8.398438 C 3.722656 -8.398438 3.964844 -8.335938 4.128906 -8.207031 C 4.292969 -8.082031 4.371094 -7.929688 4.371094 -7.746094 Z "/>
</g>
<g id="glyph-0-13">
<path d="M 5.609375 -2.730469 C 5.609375 -2.351562 5.550781 -1.984375 5.429688 -1.621094 C 5.3125 -1.257812 5.140625 -0.949219 4.917969 -0.695312 C 4.671875 -0.40625 4.378906 -0.191406 4.050781 -0.046875 C 3.722656 0.09375 3.351562 0.164062 2.941406 0.164062 C 2.601562 0.164062 2.277344 0.0976562 1.972656 -0.03125 C 1.664062 -0.160156 1.390625 -0.34375 1.152344 -0.589844 C 0.914062 -0.832031 0.726562 -1.128906 0.589844 -1.476562 C 0.449219 -1.828125 0.378906 -2.21875 0.378906 -2.652344 C 0.378906 -3.488281 0.625 -4.171875 1.109375 -4.703125 C 1.597656 -5.234375 2.234375 -5.5 3.023438 -5.5 C 3.773438 -5.5 4.390625 -5.25 4.878906 -4.746094 C 5.367188 -4.238281 5.609375 -3.566406 5.609375 -2.730469 M 4.488281 -2.71875 C 4.488281 -2.988281 4.460938 -3.277344 4.40625 -3.578125 C 4.351562 -3.878906 4.269531 -4.136719 4.160156 -4.34375 C 4.042969 -4.570312 3.890625 -4.75 3.703125 -4.886719 C 3.515625 -5.019531 3.285156 -5.089844 3.011719 -5.089844 C 2.734375 -5.089844 2.496094 -5.019531 2.300781 -4.882812 C 2.101562 -4.746094 1.941406 -4.558594 1.816406 -4.320312 C 1.703125 -4.097656 1.621094 -3.847656 1.574219 -3.5625 C 1.527344 -3.28125 1.503906 -3.007812 1.503906 -2.746094 C 1.503906 -2.398438 1.53125 -2.078125 1.585938 -1.78125 C 1.644531 -1.488281 1.734375 -1.222656 1.855469 -0.992188 C 1.980469 -0.761719 2.132812 -0.578125 2.320312 -0.449219 C 2.507812 -0.316406 2.738281 -0.25 3.011719 -0.25 C 3.464844 -0.25 3.824219 -0.46875 4.089844 -0.90625 C 4.355469 -1.34375 4.488281 -1.949219 4.488281 -2.71875 Z "/>
</g>
</g>
</defs>
<g fill="rgb(100%, 100%, 100%)" fill-opacity="1">
<use xlink:href="#glyph-0-0" x="30" y="30.188477"/>
<use xlink:href="#glyph-0-1" x="36" y="30.188477"/>
<use xlink:href="#glyph-0-2" x="41" y="30.188477"/>
<use xlink:href="#glyph-0-3" x="51" y="30.188477"/>
<use xlink:href="#glyph-0-4" x="57" y="30.188477"/>
<use xlink:href="#glyph-0-5" x="64" y="30.188477"/>
<use xlink:href="#glyph-0-6" x="68" y="30.188477"/>
<use xlink:href="#glyph-0-7" x="71" y="30.188477"/>
<use xlink:href="#glyph-0-8" x="76" y="30.188477"/>
<use xlink:href="#glyph-0-9" x="79" y="30.188477"/>
<use xlink:href="#glyph-0-10" x="88" y="30.188477"/>
<use xlink:href="#glyph-0-11" x="94" y="30.188477"/>
<use xlink:href="#glyph-0-11" x="97" y="30.188477"/>
<use xlink:href="#glyph-0-6" x="100" y="30.188477"/>
<use xlink:href="#glyph-0-12" x="103" y="30.188477"/>
<use xlink:href="#glyph-0-6" x="107" y="30.188477"/>
<use xlink:href="#glyph-0-7" x="110" y="30.188477"/>
<use xlink:href="#glyph-0-3" x="115" y="30.188477"/>
<use xlink:href="#glyph-0-5" x="121" y="30.188477"/>
<use xlink:href="#glyph-0-6" x="125" y="30.188477"/>
<use xlink:href="#glyph-0-13" x="128" y="30.188477"/>
<use xlink:href="#glyph-0-4" x="134" y="30.188477"/>
</g>
</svg>
