<?xml version="1.0" encoding="UTF-8"?>
<svg xmlns="http://www.w3.org/2000/svg" xmlns:xlink="http://www.w3.org/1999/xlink" width="854" height="480" viewBox="0 0 854 480">
<defs>
<g>
<g id="glyph-0-0">
<path d="M 2.660156 -1.765625 C 2.742188 -1.675781 2.804688 -1.578125 2.839844 -1.46875 C 2.878906 -1.363281 2.898438 -1.234375 2.898438 -1.09375 C 2.898438 -0.753906 2.773438 -0.472656 2.523438 -0.253906 C 2.273438 -0.03125 1.960938 0.078125 1.585938 0.078125 C 1.414062 0.078125 1.242188 0.0507812 1.070312 0 C 0.898438 -0.0546875 0.75 -0.121094 0.625 -0.195312 L 0.511719 0.00390625 L 0.292969 0.00390625 L 0.253906 -1.316406 L 0.476562 -1.316406 C 0.519531 -1.152344 0.574219 -1.007812 0.632812 -0.875 C 0.695312 -0.742188 0.773438 -0.621094 0.875 -0.507812 C 0.96875 -0.402344 1.078125 -0.316406 1.203125 -0.253906 C 1.328125 -0.1875 1.476562 -0.15625 1.640625 -0.15625 C 1.765625 -0.15625 1.875 -0.171875 1.96875 -0.207031 C 2.0625 -0.238281 2.136719 -0.285156 2.195312 -0.34375 C 2.253906 -0.40625 2.296875 -0.476562 2.324219 -0.554688 C 2.351562 -0.636719 2.367188 -0.730469 2.367188 -0.832031 C 2.367188 -0.988281 2.320312 -1.132812 2.234375 -1.265625 C 2.148438 -1.398438 2.019531 -1.5 1.847656 -1.566406 C 1.730469 -1.613281 1.59375 -1.664062 1.441406 -1.722656 C 1.292969 -1.78125 1.160156 -1.832031 1.050781 -1.882812 C 0.832031 -1.980469 0.664062 -2.109375 0.542969 -2.265625 C 0.421875 -2.425781 0.363281 -2.632812 0.363281 -2.886719 C 0.363281 -3.035156 0.394531 -3.167969 0.453125 -3.296875 C 0.511719 -3.421875 0.597656 -3.535156 0.707031 -3.636719 C 0.8125 -3.730469 0.9375 -3.804688 1.078125 -3.855469 C 1.222656 -3.910156 1.371094 -3.9375 1.527344 -3.9375 C 1.703125 -3.9375 1.863281 -3.910156 2.003906 -3.855469 C 2.144531 -3.800781 2.273438 -3.738281 2.386719 -3.664062 L 2.5 -3.847656 L 2.714844 -3.847656 L 2.738281 -2.570312 L 2.515625 -2.570312 C 2.476562 -2.71875 2.433594 -2.859375 2.382812 -2.992188 C 2.332031 -3.125 2.269531 -3.246094 2.1875 -3.355469 C 2.113281 -3.460938 2.015625 -3.542969 1.90625 -3.605469 C 1.792969 -3.667969 1.65625 -3.699219 1.492188 -3.699219 C 1.320312 -3.699219 1.171875 -3.644531 1.050781 -3.535156 C 0.929688 -3.425781 0.871094 -3.289062 0.871094 -3.128906 C 0.871094 -2.964844 0.910156 -2.828125 0.988281 -2.71875 C 1.066406 -2.609375 1.179688 -2.515625 1.328125 -2.445312 C 1.457031 -2.382812 1.589844 -2.328125 1.714844 -2.28125 C 1.84375 -2.238281 1.96875 -2.1875 2.085938 -2.136719 C 2.195312 -2.089844 2.300781 -2.035156 2.398438 -1.976562 C 2.5 -1.914062 2.585938 -1.84375 2.660156 -1.765625 Z "/>
</g>
<g id="glyph-0-1">
<path d="M 3.105469 0 L 1.789062 0 L 1.789062 -0.179688 C 1.832031 -0.183594 1.878906 -0.1875 1.929688 -0.191406 C 1.980469 -0.195312 2.019531 -0.199219 2.054688 -0.210938 C 2.105469 -0.226562 2.140625 -0.257812 2.167969 -0.296875 C 2.191406 -0.335938 2.203125 -0.390625 2.203125 -0.457031 L 2.203125 -1.832031 C 2.203125 -2.019531 2.15625 -2.167969 2.066406 -2.269531 C 1.980469 -2.375 1.871094 -2.425781 1.742188 -2.425781 C 1.644531 -2.425781 1.558594 -2.410156 1.476562 -2.378906 C 1.398438 -2.351562 1.324219 -2.3125 1.261719 -2.269531 C 1.199219 -2.226562 1.152344 -2.179688 1.121094 -2.136719 C 1.089844 -2.089844 1.0625 -2.050781 1.042969 -2.019531 L 1.042969 -0.484375 C 1.042969 -0.421875 1.058594 -0.371094 1.082031 -0.332031 C 1.105469 -0.292969 1.144531 -0.261719 1.195312 -0.238281 C 1.234375 -0.21875 1.273438 -0.207031 1.316406 -0.199219 C 1.359375 -0.1875 1.40625 -0.183594 1.457031 -0.179688 L 1.457031 0 L 0.148438 0 L 0.148438 -0.179688 C 0.1875 -0.183594 0.230469 -0.1875 0.277344 -0.191406 C 0.320312 -0.195312 0.359375 -0.203125 0.390625 -0.210938 C 0.4375 -0.226562 0.476562 -0.257812 0.503906 -0.296875 C 0.527344 -0.335938 0.539062 -0.390625 0.539062 -0.457031 L 0.539062 -3.574219 C 0.539062 -3.632812 0.527344 -3.695312 0.496094 -3.757812 C 0.46875 -3.820312 0.433594 -3.863281 0.386719 -3.894531 C 0.355469 -3.917969 0.296875 -3.9375 0.214844 -3.945312 C 0.132812 -3.957031 0.0664062 -3.960938 0.015625 -3.964844 L 0.015625 -4.140625 L 1.007812 -4.199219 L 1.042969 -4.160156 L 1.042969 -2.292969 L 1.054688 -2.292969 C 1.113281 -2.351562 1.167969 -2.40625 1.21875 -2.449219 C 1.265625 -2.496094 1.332031 -2.546875 1.410156 -2.597656 C 1.480469 -2.640625 1.5625 -2.675781 1.65625 -2.703125 C 1.746094 -2.734375 1.851562 -2.75 1.96875 -2.75 C 2.207031 -2.75 2.390625 -2.671875 2.519531 -2.523438 C 2.648438 -2.371094 2.710938 -2.152344 2.710938 -1.871094 L 2.710938 -0.476562 C 2.710938 -0.414062 2.722656 -0.363281 2.746094 -0.324219 C 2.769531 -0.285156 2.808594 -0.253906 2.859375 -0.234375 C 2.902344 -0.21875 2.941406 -0.203125 2.972656 -0.195312 C 3.007812 -0.1875 3.050781 -0.183594 3.105469 -0.179688 Z "/>
</g>
<g id="glyph-0-2">
<path d="M 2.730469 -0.0507812 C 2.644531 -0.0195312 2.570312 0.0078125 2.503906 0.0273438 C 2.441406 0.0429688 2.367188 0.0546875 2.285156 0.0546875 C 2.144531 0.0546875 2.035156 0.0195312 1.949219 -0.0429688 C 1.863281 -0.109375 1.8125 -0.207031 1.789062 -0.332031 L 1.773438 -0.332031 C 1.652344 -0.203125 1.527344 -0.105469 1.394531 -0.0351562 C 1.257812 0.0351562 1.097656 0.0664062 0.90625 0.0664062 C 0.707031 0.0664062 0.539062 0.0078125 0.410156 -0.117188 C 0.28125 -0.238281 0.21875 -0.402344 0.21875 -0.597656 C 0.21875 -0.703125 0.230469 -0.792969 0.261719 -0.875 C 0.289062 -0.957031 0.332031 -1.03125 0.390625 -1.097656 C 0.4375 -1.148438 0.496094 -1.199219 0.570312 -1.242188 C 0.644531 -1.285156 0.714844 -1.316406 0.777344 -1.34375 C 0.859375 -1.375 1.023438 -1.429688 1.273438 -1.515625 C 1.523438 -1.597656 1.691406 -1.660156 1.777344 -1.710938 L 1.777344 -1.976562 C 1.777344 -2 1.773438 -2.046875 1.761719 -2.113281 C 1.753906 -2.179688 1.730469 -2.242188 1.699219 -2.304688 C 1.660156 -2.371094 1.609375 -2.429688 1.546875 -2.476562 C 1.480469 -2.527344 1.386719 -2.554688 1.265625 -2.554688 C 1.179688 -2.554688 1.105469 -2.539062 1.03125 -2.511719 C 0.960938 -2.484375 0.910156 -2.453125 0.882812 -2.421875 C 0.882812 -2.386719 0.890625 -2.332031 0.90625 -2.261719 C 0.925781 -2.191406 0.933594 -2.125 0.933594 -2.066406 C 0.933594 -2.003906 0.90625 -1.945312 0.847656 -1.894531 C 0.789062 -1.839844 0.710938 -1.816406 0.609375 -1.816406 C 0.519531 -1.816406 0.453125 -1.847656 0.410156 -1.910156 C 0.367188 -1.976562 0.347656 -2.046875 0.347656 -2.125 C 0.347656 -2.210938 0.375 -2.289062 0.433594 -2.367188 C 0.496094 -2.441406 0.570312 -2.507812 0.664062 -2.570312 C 0.746094 -2.621094 0.84375 -2.664062 0.960938 -2.699219 C 1.074219 -2.734375 1.1875 -2.75 1.300781 -2.75 C 1.453125 -2.75 1.582031 -2.742188 1.695312 -2.71875 C 1.808594 -2.699219 1.914062 -2.652344 2.003906 -2.585938 C 2.097656 -2.519531 2.167969 -2.425781 2.214844 -2.3125 C 2.261719 -2.199219 2.285156 -2.050781 2.285156 -1.871094 C 2.285156 -1.609375 2.285156 -1.382812 2.277344 -1.179688 C 2.273438 -0.980469 2.269531 -0.761719 2.269531 -0.527344 C 2.269531 -0.457031 2.28125 -0.398438 2.308594 -0.359375 C 2.332031 -0.316406 2.371094 -0.28125 2.417969 -0.253906 C 2.445312 -0.234375 2.488281 -0.226562 2.546875 -0.226562 C 2.609375 -0.222656 2.667969 -0.222656 2.730469 -0.222656 L 2.730469 -0.0507812 M 1.78125 -1.480469 C 1.628906 -1.4375 1.492188 -1.390625 1.378906 -1.347656 C 1.261719 -1.304688 1.15625 -1.25 1.054688 -1.183594 C 0.964844 -1.125 0.894531 -1.050781 0.839844 -0.964844 C 0.789062 -0.882812 0.761719 -0.78125 0.761719 -0.664062 C 0.761719 -0.515625 0.800781 -0.40625 0.878906 -0.332031 C 0.960938 -0.261719 1.058594 -0.226562 1.179688 -0.226562 C 1.308594 -0.226562 1.421875 -0.257812 1.519531 -0.320312 C 1.617188 -0.382812 1.699219 -0.457031 1.765625 -0.542969 Z "/>
</g>
<g id="glyph-0-3">
<path d="M 3.125 -0.0507812 L 2.1875 0.0117188 L 2.148438 -0.0273438 L 2.148438 -0.277344 L 2.125 -0.28125 C 2.03125 -0.175781 1.917969 -0.0898438 1.777344 -0.0234375 C 1.640625 0.0429688 1.5 0.0742188 1.351562 0.0742188 C 1.199219 0.0742188 1.054688 0.0429688 0.910156 -0.0273438 C 0.769531 -0.09375 0.648438 -0.1875 0.542969 -0.3125 C 0.433594 -0.4375 0.351562 -0.585938 0.289062 -0.761719 C 0.226562 -0.9375 0.195312 -1.132812 0.195312 -1.34375 C 0.195312 -1.535156 0.230469 -1.71875 0.296875 -1.894531 C 0.363281 -2.066406 0.453125 -2.21875 0.570312 -2.347656 C 0.683594 -2.46875 0.816406 -2.566406 0.976562 -2.640625 C 1.136719 -2.710938 1.300781 -2.75 1.464844 -2.75 C 1.589844 -2.75 1.710938 -2.730469 1.832031 -2.699219 C 1.953125 -2.667969 2.054688 -2.628906 2.144531 -2.578125 L 2.144531 -3.511719 C 2.144531 -3.589844 2.128906 -3.65625 2.105469 -3.71875 C 2.078125 -3.78125 2.042969 -3.832031 2 -3.863281 C 1.949219 -3.898438 1.878906 -3.921875 1.792969 -3.9375 C 1.707031 -3.953125 1.617188 -3.964844 1.515625 -3.972656 L 1.515625 -4.140625 L 2.613281 -4.199219 L 2.652344 -4.160156 L 2.652344 -0.554688 C 2.652344 -0.488281 2.664062 -0.4375 2.691406 -0.390625 C 2.714844 -0.347656 2.75 -0.308594 2.796875 -0.28125 C 2.832031 -0.257812 2.882812 -0.246094 2.945312 -0.238281 C 3.011719 -0.234375 3.070312 -0.230469 3.125 -0.226562 L 3.125 -0.0507812 M 2.144531 -0.519531 L 2.144531 -2.082031 C 2.128906 -2.128906 2.105469 -2.179688 2.074219 -2.234375 C 2.039062 -2.289062 2 -2.339844 1.949219 -2.382812 C 1.898438 -2.429688 1.835938 -2.46875 1.765625 -2.496094 C 1.695312 -2.527344 1.613281 -2.542969 1.519531 -2.542969 C 1.414062 -2.542969 1.3125 -2.515625 1.222656 -2.457031 C 1.128906 -2.402344 1.050781 -2.320312 0.980469 -2.214844 C 0.914062 -2.113281 0.859375 -1.984375 0.820312 -1.828125 C 0.78125 -1.671875 0.761719 -1.5 0.761719 -1.308594 C 0.761719 -1.160156 0.777344 -1.019531 0.804688 -0.898438 C 0.835938 -0.773438 0.882812 -0.65625 0.953125 -0.550781 C 1.015625 -0.449219 1.097656 -0.367188 1.195312 -0.304688 C 1.292969 -0.246094 1.410156 -0.214844 1.542969 -0.214844 C 1.6875 -0.214844 1.808594 -0.246094 1.902344 -0.308594 C 2 -0.371094 2.078125 -0.441406 2.144531 -0.519531 Z "/>
</g>
<g id="glyph-0-4">
<path d="M 2.804688 -1.363281 C 2.804688 -1.175781 2.773438 -0.992188 2.714844 -0.808594 C 2.65625 -0.628906 2.570312 -0.472656 2.460938 -0.347656 C 2.335938 -0.203125 2.191406 -0.09375 2.027344 -0.0234375 C 1.859375 0.046875 1.675781 0.0820312 1.472656 0.0820312 C 1.300781 0.0820312 1.140625 0.0507812 0.984375 -0.015625 C 0.832031 -0.078125 0.695312 -0.171875 0.574219 -0.296875 C 0.457031 -0.417969 0.363281 -0.566406 0.292969 -0.738281 C 0.226562 -0.914062 0.191406 -1.109375 0.191406 -1.328125 C 0.191406 -1.746094 0.3125 -2.085938 0.554688 -2.351562 C 0.796875 -2.617188 1.117188 -2.75 1.511719 -2.75 C 1.886719 -2.75 2.195312 -2.625 2.441406 -2.371094 C 2.683594 -2.121094 2.804688 -1.785156 2.804688 -1.363281 M 2.242188 -1.359375 C 2.242188 -1.496094 2.230469 -1.636719 2.203125 -1.789062 C 2.175781 -1.941406 2.136719 -2.066406 2.082031 -2.171875 C 2.023438 -2.285156 1.945312 -2.375 1.851562 -2.441406 C 1.757812 -2.511719 1.644531 -2.542969 1.507812 -2.542969 C 1.367188 -2.542969 1.25 -2.511719 1.148438 -2.441406 C 1.050781 -2.371094 0.972656 -2.277344 0.910156 -2.160156 C 0.851562 -2.050781 0.808594 -1.921875 0.785156 -1.78125 C 0.761719 -1.640625 0.75 -1.503906 0.75 -1.371094 C 0.75 -1.199219 0.765625 -1.039062 0.792969 -0.890625 C 0.820312 -0.742188 0.867188 -0.613281 0.929688 -0.496094 C 0.988281 -0.378906 1.066406 -0.289062 1.160156 -0.222656 C 1.253906 -0.15625 1.371094 -0.125 1.507812 -0.125 C 1.734375 -0.125 1.914062 -0.234375 2.046875 -0.453125 C 2.175781 -0.671875 2.242188 -0.972656 2.242188 -1.359375 Z "/>
</g>
<g id="glyph-0-5">
<path d="M 4.179688 -2.5 C 4.105469 -2.492188 4.023438 -2.460938 3.933594 -2.40625 C 3.847656 -2.351562 3.785156 -2.265625 3.742188 -2.152344 C 3.652344 -1.886719 3.566406 -1.636719 3.488281 -1.398438 C 3.40625 -1.160156 3.316406 -0.894531 3.21875 -0.597656 C 3.183594 -0.503906 3.152344 -0.402344 3.117188 -0.292969 C 3.085938 -0.183594 3.054688 -0.0820312 3.027344 0.0195312 L 2.796875 0.0195312 L 2.074219 -1.953125 L 1.351562 0.0195312 L 1.128906 0.0195312 C 0.992188 -0.382812 0.859375 -0.78125 0.730469 -1.175781 C 0.601562 -1.570312 0.488281 -1.914062 0.386719 -2.207031 C 0.359375 -2.292969 0.304688 -2.359375 0.222656 -2.410156 C 0.140625 -2.457031 0.0625 -2.488281 -0.0117188 -2.496094 L -0.0117188 -2.675781 L 1.179688 -2.675781 L 1.179688 -2.484375 C 1.121094 -2.484375 1.054688 -2.472656 0.984375 -2.457031 C 0.914062 -2.4375 0.882812 -2.40625 0.882812 -2.367188 C 0.882812 -2.359375 0.882812 -2.34375 0.890625 -2.320312 C 0.898438 -2.296875 0.90625 -2.269531 0.914062 -2.242188 C 0.972656 -2.054688 1.035156 -1.84375 1.109375 -1.609375 C 1.183594 -1.375 1.277344 -1.070312 1.394531 -0.699219 L 2.074219 -2.621094 L 2.339844 -2.621094 L 3.035156 -0.722656 C 3.113281 -0.964844 3.191406 -1.199219 3.269531 -1.425781 C 3.34375 -1.652344 3.410156 -1.867188 3.46875 -2.066406 C 3.484375 -2.113281 3.496094 -2.15625 3.507812 -2.195312 C 3.519531 -2.230469 3.523438 -2.269531 3.523438 -2.308594 C 3.523438 -2.339844 3.511719 -2.371094 3.480469 -2.394531 C 3.453125 -2.421875 3.417969 -2.441406 3.375 -2.457031 C 3.339844 -2.472656 3.300781 -2.484375 3.257812 -2.492188 C 3.214844 -2.496094 3.183594 -2.5 3.164062 -2.5 L 3.164062 -2.675781 L 4.179688 -2.675781 Z "/>
</g>
<g id="glyph-0-6">
</g>
<g id="glyph-1-0">
<path d="M 2.660156 -1.765625 C 2.742188 -1.675781 2.804688 -1.578125 2.839844 -1.46875 C 2.878906 -1.363281 2.898438 -1.234375 2.898438 -1.09375 C 2.898438 -0.753906 2.773438 -0.472656 2.523438 -0.253906 C 2.273438 -0.03125 1.960938 0.078125 1.585938 0.078125 C 1.414062 0.078125 1.242188 0.0507812 1.070312 0 C 0.898438 -0.0546875 0.75 -0.121094 0.625 -0.195312 L 0.511719 0.00390625 L 0.292969 0.00390625 L 0.253906 -1.316406 L 0.476562 -1.316406 C 0.519531 -1.152344 0.574219 -1.007812 0.632812 -0.875 C 0.695312 -0.742188 0.773438 -0.621094 0.875 -0.507812 C 0.96875 -0.402344 1.078125 -0.316406 1.203125 -0.253906 C 1.328125 -0.1875 1.476562 -0.15625 1.640625 -0.15625 C 1.765625 -0.15625 1.875 -0.171875 1.96875 -0.207031 C 2.0625 -0.238281 2.136719 -0.285156 2.195312 -0.34375 C 2.253906 -0.40625 2.296875 -0.476562 2.324219 -0.554688 C 2.351562 -0.636719 2.367188 -0.730469 2.367188 -0.832031 C 2.367188 -0.988281 2.320312 -1.132812 2.234375 -1.265625 C 2.148438 -1.398438 2.019531 -1.5 1.847656 -1.566406 C 1.730469 -1.613281 1.59375 -1.664062 1.441406 -1.722656 C 1.292969 -1.78125 1.160156 -1.832031 1.050781 -1.882812 C 0.832031 -1.980469 0.664062 -2.109375 0.542969 -2.265625 C 0.421875 -2.425781 0.363281 -2.632812 0.363281 -2.886719 C 0.363281 -3.035156 0.394531 -3.167969 0.453125 -3.296875 C 0.511719 -3.421875 0.597656 -3.535156 0.707031 -3.636719 C 0.8125 -3.730469 0.9375 -3.804688 1.078125 -3.855469 C 1.222656 -3.910156 1.371094 -3.9375 1.527344 -3.9375 C 1.703125 -3.9375 1.863281 -3.910156 2.003906 -3.855469 C 2.144531 -3.800781 2.273438 -3.738281 2.386719 -3.664062 L 2.5 -3.847656 L 2.714844 -3.847656 L 2.738281 -2.570312 L 2.515625 -2.570312 C 2.476562 -2.71875 2.433594 -2.859375 2.382812 -2.992188 C 2.332031 -3.125 2.269531 -3.246094 2.1875 -3.355469 C 2.113281 -3.460938 2.015625 -3.542969 1.90625 -3.605469 C 1.792969 -3.667969 1.65625 -3.699219 1.492188 -3.699219 C 1.320312 -3.699219 1.171875 -3.644531 1.050781 -3.535156 C 0.929688 -3.425781 0.871094 -3.289062 0.871094 -3.128906 C 0.871094 -2.964844 0.910156 -2.828125 0.988281 -2.71875 C 1.066406 -2.609375 1.179688 -2.515625 1.328125 -2.445312 C 1.457031 -2.382812 1.589844 -2.328125 1.714844 -2.28125 C 1.84375 -2.238281 1.96875 -2.1875 2.085938 -2.136719 C 2.195312 -2.089844 2.300781 -2.035156 2.398438 -1.976562 C 2.5 -1.914062 2.585938 -1.84375 2.660156 -1.765625 Z "/>
</g>
<g id="glyph-1-1">
<path d="M 2.730469 -0.0507812 C 2.644531 -0.0195312 2.570312 0.0078125 2.503906 0.0273438 C 2.441406 0.0429688 2.367188 0.0546875 2.285156 0.0546875 C 2.144531 0.0546875 2.035156 0.0195312 1.949219 -0.0429688 C 1.863281 -0.109375 1.8125 -0.207031 1.789062 -0.332031 L 1.773438 -0.332031 C 1.652344 -0.203125 1.527344 -0.105469 1.394531 -0.0351562 C 1.257812 0.0351562 1.097656 0.0664062 0.90625 0.0664062 C 0.707031 0.0664062 0.539062 0.0078125 0.410156 -0.117188 C 0.28125 -0.238281 0.21875 -0.402344 0.21875 -0.597656 C 0.21875 -0.703125 0.230469 -0.792969 0.261719 -0.875 C 0.289062 -0.957031 0.332031 -1.03125 0.390625 -1.097656 C 0.4375 -1.148438 0.496094 -1.199219 0.570312 -1.242188 C 0.644531 -1.285156 0.714844 -1.316406 0.777344 -1.34375 C 0.859375 -1.375 1.023438 -1.429688 1.273438 -1.515625 C 1.523438 -1.597656 1.691406 -1.660156 1.777344 -1.710938 L 1.777344 -1.976562 C 1.777344 -2 1.773438 -2.046875 1.761719 -2.113281 C 1.753906 -2.179688 1.730469 -2.242188 1.699219 -2.304688 C 1.660156 -2.371094 1.609375 -2.429688 1.546875 -2.476562 C 1.480469 -2.527344 1.386719 -2.554688 1.265625 -2.554688 C 1.179688 -2.554688 1.105469 -2.539062 1.03125 -2.511719 C 0.960938 -2.484375 0.910156 -2.453125 0.882812 -2.421875 C 0.882812 -2.386719 0.890625 -2.332031 0.90625 -2.261719 C 0.925781 -2.191406 0.933594 -2.125 0.933594 -2.066406 C 0.933594 -2.003906 0.90625 -1.945312 0.847656 -1.894531 C 0.789062 -1.839844 0.710938 -1.816406 0.609375 -1.816406 C 0.519531 -1.816406 0.453125 -1.847656 0.410156 -1.910156 C 0.367188 -1.976562 0.347656 -2.046875 0.347656 -2.125 C 0.347656 -2.210938 0.375 -2.289062 0.433594 -2.367188 C 0.496094 -2.441406 0.570312 -2.507812 0.664062 -2.570312 C 0.746094 -2.621094 0.84375 -2.664062 0.960938 -2.699219 C 1.074219 -2.734375 1.1875 -2.75 1.300781 -2.75 C 1.453125 -2.75 1.582031 -2.742188 1.695312 -2.71875 C 1.808594 -2.699219 1.914062 -2.652344 2.003906 -2.585938 C 2.097656 -2.519531 2.167969 -2.425781 2.214844 -2.3125 C 2.261719 -2.199219 2.285156 -2.050781 2.285156 -1.871094 C 2.285156 -1.609375 2.285156 -1.382812 2.277344 -1.179688 C 2.273438 -0.980469 2.269531 -0.761719 2.269531 -0.527344 C 2.269531 -0.457031 2.28125 -0.398438 2.308594 -0.359375 C 2.332031 -0.316406 2.371094 -0.28125 2.417969 -0.253906 C 2.445312 -0.234375 2.488281 -0.226562 2.546875 -0.226562 C 2.609375 -0.222656 2.667969 -0.222656 2.730469 -0.222656 L 2.730469 -0.0507812 M 1.78125 -1.480469 C 1.628906 -1.4375 1.492188 -1.390625 1.378906 -1.347656 C 1.261719 -1.304688 1.15625 -1.25 1.054688 -1.183594 C 0.964844 -1.125 0.894531 -1.050781 0.839844 -0.964844 C 0.789062 -0.882812 0.761719 -0.78125 0.761719 -0.664062 C 0.761719 -0.515625 0.800781 -0.40625 0.878906 -0.332031 C 0.960938 -0.261719 1.058594 -0.226562 1.179688 -0.226562 C 1.308594 -0.226562 1.421875 -0.257812 1.519531 -0.320312 C 1.617188 -0.382812 1.699219 -0.457031 1.765625 -0.542969 Z "/>
</g>
<g id="glyph-1-2">
<path d="M 3.148438 0 L 1.84375 0 L 1.84375 -0.179688 C 1.882812 -0.183594 1.929688 -0.1875 1.980469 -0.191406 C 2.027344 -0.195312 2.070312 -0.199219 2.101562 -0.210938 C 2.152344 -0.226562 2.191406 -0.257812 2.214844 -0.296875 C 2.238281 -0.335938 2.25 -0.390625 2.25 -0.457031 L 2.25 -1.832031 C 2.25 -2.019531 2.207031 -2.167969 2.117188 -2.269531 C 2.027344 -2.375 1.917969 -2.425781 1.789062 -2.425781 C 1.691406 -2.425781 1.605469 -2.410156 1.527344 -2.378906 C 1.445312 -2.351562 1.375 -2.3125 1.3125 -2.269531 C 1.253906 -2.230469 1.207031 -2.183594 1.171875 -2.136719 C 1.136719 -2.089844 1.109375 -2.050781 1.09375 -2.019531 L 1.09375 -0.484375 C 1.09375 -0.421875 1.105469 -0.371094 1.132812 -0.332031 C 1.15625 -0.292969 1.195312 -0.261719 1.246094 -0.238281 C 1.28125 -0.21875 1.324219 -0.207031 1.367188 -0.199219 C 1.414062 -0.1875 1.457031 -0.183594 1.503906 -0.179688 L 1.503906 0 L 0.195312 0 L 0.195312 -0.179688 C 0.238281 -0.183594 0.28125 -0.1875 0.324219 -0.191406 C 0.367188 -0.195312 0.40625 -0.199219 0.441406 -0.210938 C 0.488281 -0.226562 0.527344 -0.257812 0.550781 -0.296875 C 0.578125 -0.335938 0.589844 -0.390625 0.589844 -0.457031 L 0.589844 -2.105469 C 0.589844 -2.167969 0.574219 -2.222656 0.550781 -2.273438 C 0.523438 -2.328125 0.488281 -2.367188 0.441406 -2.402344 C 0.40625 -2.421875 0.363281 -2.4375 0.316406 -2.449219 C 0.269531 -2.457031 0.21875 -2.464844 0.164062 -2.46875 L 0.164062 -2.648438 L 1.054688 -2.707031 L 1.09375 -2.667969 L 1.09375 -2.292969 L 1.105469 -2.292969 C 1.148438 -2.335938 1.203125 -2.386719 1.269531 -2.449219 C 1.335938 -2.507812 1.394531 -2.558594 1.453125 -2.597656 C 1.519531 -2.640625 1.601562 -2.675781 1.691406 -2.703125 C 1.785156 -2.734375 1.890625 -2.75 2.003906 -2.75 C 2.261719 -2.75 2.453125 -2.667969 2.574219 -2.507812 C 2.699219 -2.347656 2.761719 -2.136719 2.761719 -1.871094 L 2.761719 -0.476562 C 2.761719 -0.414062 2.773438 -0.363281 2.792969 -0.324219 C 2.816406 -0.285156 2.851562 -0.253906 2.90625 -0.234375 C 2.949219 -0.214844 2.988281 -0.203125 3.019531 -0.195312 C 3.050781 -0.1875 3.09375 -0.183594 3.148438 -0.179688 Z "/>
</g>
<g id="glyph-1-3">
<path d="M 3.125 -0.0507812 L 2.1875 0.0117188 L 2.148438 -0.0273438 L 2.148438 -0.277344 L 2.125 -0.28125 C 2.03125 -0.175781 1.917969 -0.0898438 1.777344 -0.0234375 C 1.640625 0.0429688 1.5 0.0742188 1.351562 0.0742188 C 1.199219 0.0742188 1.054688 0.0429688 0.910156 -0.0273438 C 0.769531 -0.09375 0.648438 -0.1875 0.542969 -0.3125 C 0.433594 -0.4375 0.351562 -0.585938 0.289062 -0.761719 C 0.226562 -0.9375 0.195312 -1.132812 0.195312 -1.34375 C 0.195312 -1.535156 0.230469 -1.71875 0.296875 -1.894531 C 0.363281 -2.066406 0.453125 -2.21875 0.570312 -2.347656 C 0.683594 -2.46875 0.816406 -2.566406 0.976562 -2.640625 C 1.136719 -2.710938 1.300781 -2.75 1.464844 -2.75 C 1.589844 -2.75 1.710938 -2.730469 1.832031 -2.699219 C 1.953125 -2.667969 2.054688 -2.628906 2.144531 -2.578125 L 2.144531 -3.511719 C 2.144531 -3.589844 2.128906 -3.65625 2.105469 -3.71875 C 2.078125 -3.78125 2.042969 -3.832031 2 -3.863281 C 1.949219 -3.898438 1.878906 -3.921875 1.792969 -3.9375 C 1.707031 -3.953125 1.617188 -3.964844 1.515625 -3.972656 L 1.515625 -4.140625 L 2.613281 -4.199219 L 2.652344 -4.160156 L 2.652344 -0.554688 C 2.652344 -0.488281 2.664062 -0.4375 2.691406 -0.390625 C 2.714844 -0.347656 2.75 -0.308594 2.796875 -0.28125 C 2.832031 -0.257812 2.882812 -0.246094 2.945312 -0.238281 C 3.011719 -0.234375 3.070312 -0.230469 3.125 -0.226562 L 3.125 -0.0507812 M 2.144531 -0.519531 L 2.144531 -2.082031 C 2.128906 -2.128906 2.105469 -2.179688 2.074219 -2.234375 C 2.039062 -2.289062 2 -2.339844 1.949219 -2.382812 C 1.898438 -2.429688 1.835938 -2.46875 1.765625 -2.496094 C 1.695312 -2.527344 1.613281 -2.542969 1.519531 -2.542969 C 1.414062 -2.542969 1.3125 -2.515625 1.222656 -2.457031 C 1.128906 -2.402344 1.050781 -2.320312 0.980469 -2.214844 C 0.914062 -2.113281 0.859375 -1.984375 0.820312 -1.828125 C 0.78125 -1.671875 0.761719 -1.5 0.761719 -1.308594 C 0.761719 -1.160156 0.777344 -1.019531 0.804688 -0.898438 C 0.835938 -0.773438 0.882812 -0.65625 0.953125 -0.550781 C 1.015625 -0.449219 1.097656 -0.367188 1.195312 -0.304688 C 1.292969 -0.246094 1.410156 -0.214844 1.542969 -0.214844 C 1.6875 -0.214844 1.808594 -0.246094 1.902344 -0.308594 C 2 -0.371094 2.078125 -0.441406 2.144531 -0.519531 Z "/>
</g>
<g id="glyph-1-4">
<path d="M 2.910156 -1.339844 C 2.910156 -0.9375 2.785156 -0.601562 2.53125 -0.328125 C 2.277344 -0.0546875 1.984375 0.0820312 1.648438 0.0820312 C 1.503906 0.0820312 1.359375 0.0585938 1.214844 0.0117188 C 1.074219 -0.03125 0.941406 -0.09375 0.816406 -0.167969 L 0.617188 0.144531 L 0.449219 0.105469 C 0.457031 -0.0273438 0.464844 -0.1875 0.464844 -0.378906 C 0.46875 -0.566406 0.472656 -0.746094 0.472656 -0.921875 L 0.472656 -3.574219 C 0.472656 -3.632812 0.457031 -3.695312 0.429688 -3.757812 C 0.402344 -3.820312 0.367188 -3.863281 0.324219 -3.890625 C 0.289062 -3.914062 0.230469 -3.929688 0.152344 -3.941406 C 0.0703125 -3.953125 0.00390625 -3.960938 -0.0429688 -3.964844 L -0.0429688 -4.140625 L 0.9375 -4.199219 L 0.976562 -4.160156 L 0.976562 -2.394531 L 0.996094 -2.390625 C 1.109375 -2.507812 1.230469 -2.597656 1.363281 -2.660156 C 1.496094 -2.71875 1.625 -2.75 1.753906 -2.75 C 2.085938 -2.75 2.359375 -2.617188 2.578125 -2.359375 C 2.800781 -2.097656 2.910156 -1.757812 2.910156 -1.339844 M 2.34375 -1.320312 C 2.34375 -1.453125 2.328125 -1.589844 2.300781 -1.730469 C 2.273438 -1.871094 2.226562 -1.992188 2.164062 -2.09375 C 2.101562 -2.199219 2.023438 -2.285156 1.921875 -2.347656 C 1.824219 -2.414062 1.703125 -2.445312 1.566406 -2.445312 C 1.4375 -2.445312 1.328125 -2.421875 1.234375 -2.371094 C 1.136719 -2.324219 1.050781 -2.253906 0.976562 -2.171875 L 0.976562 -0.613281 C 0.988281 -0.570312 1.007812 -0.519531 1.039062 -0.460938 C 1.070312 -0.402344 1.113281 -0.347656 1.167969 -0.296875 C 1.222656 -0.246094 1.285156 -0.203125 1.355469 -0.171875 C 1.421875 -0.140625 1.507812 -0.125 1.605469 -0.125 C 1.828125 -0.125 2.003906 -0.230469 2.140625 -0.445312 C 2.277344 -0.660156 2.34375 -0.949219 2.34375 -1.320312 Z "/>
</g>
<g id="glyph-1-5">
<path d="M 2.804688 -1.363281 C 2.804688 -1.175781 2.773438 -0.992188 2.714844 -0.808594 C 2.65625 -0.628906 2.570312 -0.472656 2.460938 -0.347656 C 2.335938 -0.203125 2.191406 -0.09375 2.027344 -0.0234375 C 1.859375 0.046875 1.675781 0.0820312 1.472656 0.0820312 C 1.300781 0.0820312 1.140625 0.0507812 0.984375 -0.015625 C 0.832031 -0.078125 0.695312 -0.171875 0.574219 -0.296875 C 0.457031 -0.417969 0.363281 -0.566406 0.292969 -0.738281 C 0.226562 -0.914062 0.191406 -1.109375 0.191406 -1.328125 C 0.191406 -1.746094 0.3125 -2.085938 0.554688 -2.351562 C 0.796875 -2.617188 1.117188 -2.75 1.511719 -2.75 C 1.886719 -2.75 2.195312 -2.625 2.441406 -2.371094 C 2.683594 -2.121094 2.804688 -1.785156 2.804688 -1.363281 M 2.242188 -1.359375 C 2.242188 -1.496094 2.230469 -1.636719 2.203125 -1.789062 C 2.175781 -1.941406 2.136719 -2.066406 2.082031 -2.171875 C 2.023438 -2.285156 1.945312 -2.375 1.851562 -2.441406 C 1.757812 -2.511719 1.644531 -2.542969 1.507812 -2.542969 C 1.367188 -2.542969 1.25 -2.511719 1.148438 -2.441406 C 1.050781 -2.371094 0.972656 -2.277344 0.910156 -2.160156 C 0.851562 -2.050781 0.808594 -1.921875 0.785156 -1.78125 C 0.761719 -1.640625 0.75 -1.503906 0.75 -1.371094 C 0.75 -1.199219 0.765625 -1.039062 0.792969 -0.890625 C 0.820312 -0.742188 0.867188 -0.613281 0.929688 -0.496094 C 0.988281 -0.378906 1.066406 -0.289062 1.160156 -0.222656 C 1.253906 -0.15625 1.371094 -0.125 1.507812 -0.125 C 1.734375 -0.125 1.914062 -0.234375 2.046875 -0.453125 C 2.175781 -0.671875 2.242188 -0.972656 2.242188 -1.359375 Z "/>
</g>
<g id="glyph-1-6">
<path d="M 2.773438 0 L 1.546875 0 L 1.546875 -0.179688 C 1.628906 -0.1875 1.699219 -0.195312 1.753906 -0.207031 C 1.8125 -0.214844 1.839844 -0.238281 1.839844 -0.277344 C 1.839844 -0.292969 1.832031 -0.316406 1.8125 -0.351562 C 1.796875 -0.386719 1.777344 -0.417969 1.757812 -0.449219 C 1.714844 -0.519531 1.652344 -0.613281 1.574219 -0.730469 C 1.492188 -0.851562 1.398438 -0.992188 1.285156 -1.15625 C 1.1875 -1.039062 1.101562 -0.925781 1.023438 -0.8125 C 0.941406 -0.703125 0.859375 -0.582031 0.773438 -0.457031 C 0.761719 -0.441406 0.746094 -0.417969 0.734375 -0.390625 C 0.71875 -0.363281 0.710938 -0.34375 0.710938 -0.324219 C 0.710938 -0.285156 0.738281 -0.253906 0.789062 -0.226562 C 0.84375 -0.199219 0.917969 -0.183594 1.023438 -0.171875 L 1.023438 0 L 0.03125 0 L 0.03125 -0.167969 C 0.15625 -0.203125 0.253906 -0.25 0.328125 -0.300781 C 0.40625 -0.351562 0.472656 -0.414062 0.535156 -0.492188 C 0.59375 -0.5625 0.671875 -0.664062 0.773438 -0.789062 C 0.871094 -0.917969 1.003906 -1.089844 1.160156 -1.308594 C 1.070312 -1.441406 0.957031 -1.601562 0.824219 -1.789062 C 0.691406 -1.980469 0.582031 -2.140625 0.496094 -2.265625 C 0.449219 -2.335938 0.394531 -2.390625 0.332031 -2.433594 C 0.273438 -2.472656 0.1875 -2.496094 0.0742188 -2.496094 L 0.0742188 -2.675781 L 1.238281 -2.675781 L 1.238281 -2.496094 C 1.183594 -2.496094 1.125 -2.492188 1.070312 -2.484375 C 1.011719 -2.476562 0.984375 -2.460938 0.984375 -2.4375 C 0.984375 -2.417969 0.992188 -2.402344 1 -2.382812 C 1.011719 -2.363281 1.027344 -2.339844 1.042969 -2.316406 C 1.082031 -2.253906 1.144531 -2.160156 1.226562 -2.03125 C 1.3125 -1.902344 1.402344 -1.769531 1.5 -1.625 C 1.5625 -1.710938 1.636719 -1.8125 1.722656 -1.929688 C 1.804688 -2.042969 1.882812 -2.15625 1.953125 -2.261719 C 1.960938 -2.273438 1.96875 -2.289062 1.976562 -2.308594 C 1.984375 -2.328125 1.988281 -2.34375 1.988281 -2.363281 C 1.988281 -2.402344 1.957031 -2.429688 1.894531 -2.453125 C 1.832031 -2.476562 1.769531 -2.492188 1.714844 -2.5 L 1.714844 -2.675781 L 2.703125 -2.675781 L 2.703125 -2.507812 C 2.5625 -2.46875 2.453125 -2.425781 2.375 -2.378906 C 2.296875 -2.328125 2.234375 -2.269531 2.179688 -2.207031 C 2.117188 -2.132812 2.046875 -2.039062 1.964844 -1.929688 C 1.882812 -1.824219 1.769531 -1.671875 1.621094 -1.476562 C 1.785156 -1.246094 1.917969 -1.054688 2.019531 -0.90625 C 2.125 -0.757812 2.226562 -0.605469 2.332031 -0.449219 C 2.386719 -0.367188 2.445312 -0.304688 2.507812 -0.257812 C 2.574219 -0.214844 2.660156 -0.1875 2.773438 -0.179688 Z "/>
</g>
</g>
</defs>
<g fill="rgb(100%, 24.705882%, 0%)" fill-opacity="1">
<use xlink:href="#glyph-0-0" x="30" y="25.094727"/>
<use xlink:href="#glyph-0-1" x="33" y="25.094727"/>
<use xlink:href="#glyph-0-2" x="36" y="25.094727"/>
<use xlink:href="#glyph-0-3" x="39" y="25.094727"/>
<use xlink:href="#glyph-0-4" x="42" y="25.094727"/>
<use xlink:href="#glyph-0-5" x="45" y="25.094727"/>
<use xlink:href="#glyph-0-6" x="49" y="25.094727"/>
</g>
<g fill="rgb(100%, 24.705882%, 0%)" fill-opacity="1">
<use xlink:href="#glyph-1-0" x="30" y="30.512695"/>
<use xlink:href="#glyph-1-1" x="33" y="30.512695"/>
<use xlink:href="#glyph-1-2" x="36" y="30.512695"/>
<use xlink:href="#glyph-1-3" x="39" y="30.512695"/>
<use xlink:href="#glyph-1-4" x="42" y="30.512695"/>
<use xlink:href="#glyph-1-5" x="45" y="30.512695"/>
<use xlink:href="#glyph-1-6" x="48" y="30.512695"/>
</g>
</svg>
